# xmcd
#
# Track frame offsets:
#	150
#	14232
#	29112
#	41645
#	54382
#	67640
#	81782
#	94929
#	108345
#	122442
#	133430
#	145900
#	158590
#	173112
#	186777
#	209477
#
# Disc length: 2805 seconds
#
# Revision: 1
# Processed by: cddbd v1.5.2PL0 Copyright (c) Steve Scherf et al.
# Submitted via: audiograbber 1.83.01
#
DISCID=e30af310
DTITLE=Classic Country volumne 6 - SC8491
DYEAR=1900
DGENRE=KARAOKE
TTITLE0=BILL ANDERSON - MY LIFE(THROW IT AWAY IF I WANT TO)
TTITLE1=CARL SMITH - IF TEARDROPS WERE PENNIES
TTITLE2=HANK LOCKLIN - LET ME BE THE ONE
TTITLE3=LEROY VAN DYKE - AUCTIONEER
TTITLE4=MARTY ROBBINS - I'LL GO ON ALONE
TTITLE5=HANK SNOW - I'VE BEEN EVERYWHERE
TTITLE6=BOBBY BARE - THE STREETS OF BALTIMORE
TTITLE7=TEX RITTER - YOU TWO-TIMED ME ONE TIME TOO OFTEN
TTITLE8=SONS OS THE PIONEERS - TUMBLING TUMBLEWEEDS
TTITLE9=HANK THOMPSON - RUB-A-DUB-DUB
TTITLE10=JIM REEVES - ADIOS AMIGO
TTITLE11=STONEWALL JACKSON - LIFE TO GO
TTITLE12=HANK WILLIAMS - WEDDING BELLS
TTITLE13=LEFTY FRIZZELL - I LOVE YOU A THOUSAND WAYS
TTITLE14=FERLIN HUSKY - COUNTRY MUSIC IS HERE TO STAY
TTITLE15=DATA - Data Track
EXTD=
EXTT0=
EXTT1=
EXTT2=
EXTT3=
EXTT4=
EXTT5=
EXTT6=
EXTT7=
EXTT8=
EXTT9=
EXTT10=
EXTT11=
EXTT12=
EXTT13=
EXTT14=
EXTT15=
PLAYORDER=
